<svg xmlns="http://www.w3.org/2000/svg" width="1040" height="612" viewBox="0 0 1040 612" role="img" aria-labelledby="title desc">
  <title id="title">AgentX Weka dataset replay</title>
  <desc id="desc">The Weka 256K corpus has 393 recorded coding-session roots with growing shared prefixes, subagent trees and recorded pauses. AIPerf reconstructs tokenized prompts from trace blocks, preserves spawn and join dependencies, and schedules the next turn after the preceding response and recorded delay. Concurrency C counts live root sessions with their subagents, rather than individual requests. Dynamo and SGLang serve the replay under KV-aware routing or round-robin routing. Cache reuse, latency and throughput are measured outcomes. Blue token blocks show shared conversation history; gold blocks show new input. The illustration is schematic; the report specifies warmup, timing controls and cache busting.</desc>
  <defs>
    <style>
      text { font-family: 'DejaVu Sans', sans-serif; fill: #203952; }
      .label { font-size: 24px; font-weight: 600; }
      .small { font-size: 18px; }
      .detail { font-size: 16px; fill: #526c83; }
      .micro { font-size: 14px; fill: #526c83; }
      .feature { font-size: 18px; }
      .icon { fill: none; stroke: #4486d6; stroke-width: 2.2; stroke-linecap: round; stroke-linejoin: round; }
      .outline { fill: #fff; stroke: #294863; stroke-width: 3; stroke-linecap: round; stroke-linejoin: round; }
      .line { fill: none; stroke: #294863; stroke-width: 3; stroke-linecap: round; stroke-linejoin: round; }
      .prefix { fill: #e3efff; stroke: #4486d6; stroke-width: 2; }
      .new { fill: #fff0cc; stroke: #c89228; stroke-width: 2; }
    </style>
    <marker id="arrow" markerWidth="11" markerHeight="11" refX="9" refY="5.5" orient="auto" markerUnits="userSpaceOnUse"><path d="M1 1 L9 5.5 L1 10" fill="none" stroke="#294863" stroke-width="2.5" stroke-linecap="round" stroke-linejoin="round"/></marker>
    <marker id="turn" markerWidth="8" markerHeight="8" refX="6" refY="4" orient="auto" markerUnits="userSpaceOnUse"><path d="M1 1 L6 4 L1 7" fill="none" stroke="#8299ae" stroke-width="2" stroke-linecap="round" stroke-linejoin="round"/></marker>
  </defs>
  <rect width="1040" height="612" fill="#fff"/>
  <text class="label" x="157" y="47" text-anchor="middle">Weka 256K</text>
  <text class="detail" x="157" y="77" text-anchor="middle">393 recorded coding sessions</text>
  <text class="label" x="531" y="47" text-anchor="middle">AIPerf replay</text>
  <text class="detail" x="531" y="77" text-anchor="middle">Rebuild prompts from trace blocks</text>
  <text class="label" x="898" y="47" text-anchor="middle" style="font-size:22px">Dynamo + SGLang</text>
  <rect x="788" y="60" width="220" height="26" rx="13" fill="#e3efff" stroke="#4486d6"/>
  <text class="detail" x="898" y="78" text-anchor="middle" style="fill:#285d9b">KV-aware routing</text>
  <text class="micro" x="898" y="99" text-anchor="middle" style="font-size:12px">vs</text>
  <rect x="788" y="104" width="220" height="26" rx="13" fill="#f5f8fb" stroke="#adc0d1"/>
  <text class="detail" x="898" y="122" text-anchor="middle">Round-robin routing</text>

  <g transform="translate(0 27)">
  <!-- A stack of recorded session trees. -->
  <rect x="83" y="88" width="200" height="218" rx="12" fill="#f4f8fc" stroke="#adc0d1" stroke-width="2"/>
  <rect x="69" y="101" width="200" height="218" rx="12" fill="#fff" stroke="#8299ae" stroke-width="2"/>
  <rect class="outline" x="55" y="114" width="200" height="218" rx="12"/>
  <path class="outline" d="M132 140 H193 Q201 140 201 148 V170 Q201 178 193 178 H152 L140 187 V178 H132 Q124 178 124 170 V148 Q124 140 132 140 Z"/>
  <path d="M139 153 H187 M139 164 H173" fill="none" stroke="#4486d6" stroke-width="3" stroke-linecap="round"/>
  <path d="M162 186 V202 H108 V217 M162 202 H208 V217" fill="none" stroke="#8299ae" stroke-width="2.5" stroke-linecap="round" stroke-linejoin="round"/>
  <rect class="outline" x="81" y="219" width="54" height="32" rx="9"/>
  <path d="M93 231 H122 M93 240 H113" fill="none" stroke="#4486d6" stroke-width="2.5" stroke-linecap="round"/>
  <rect class="outline" x="182" y="219" width="54" height="32" rx="9"/>
  <path d="M194 231 H224 M194 240 H215" fill="none" stroke="#4486d6" stroke-width="2.5" stroke-linecap="round"/>
  <path d="M108 252 V273" fill="none" stroke="#8299ae" stroke-width="2.5" marker-end="url(#turn)"/>
  <rect class="outline" x="81" y="279" width="54" height="29" rx="9"/>
  <path d="M93 290 H122 M93 299 H113" fill="none" stroke="#4486d6" stroke-width="2.5" stroke-linecap="round"/>

  <path class="line" d="M302 216 H365" marker-end="url(#arrow)"/>

  <!-- Requests grow as the conversation progresses. -->
  <path class="outline" d="M407 99 H650 Q662 99 662 111 V145 Q662 157 650 157 H423 L406 166 V157 Q394 157 394 145 V111 Q394 99 407 99 Z"/>
  <rect class="prefix" x="414" y="117" width="24" height="23" rx="4"/>
  <rect class="prefix" x="444" y="117" width="24" height="23" rx="4"/>
  <rect class="prefix" x="474" y="117" width="24" height="23" rx="4"/>
  <rect class="new" x="504" y="117" width="24" height="23" rx="4"/>
  <path d="M528 160 V185" fill="none" stroke="#8299ae" stroke-width="2.5" marker-end="url(#turn)"/>
  <circle cx="552" cy="174" r="10" fill="#fff" stroke="#8299ae" stroke-width="2"/>
  <path d="M552 168 V174 L556 177" fill="none" stroke="#8299ae" stroke-width="2" stroke-linecap="round"/>

  <path class="outline" d="M407 191 H650 Q662 191 662 203 V237 Q662 249 650 249 H423 L406 258 V249 Q394 249 394 237 V203 Q394 191 407 191 Z"/>
  <rect class="prefix" x="414" y="209" width="24" height="23" rx="4"/>
  <rect class="prefix" x="444" y="209" width="24" height="23" rx="4"/>
  <rect class="prefix" x="474" y="209" width="24" height="23" rx="4"/>
  <rect class="prefix" x="504" y="209" width="24" height="23" rx="4"/>
  <rect class="new" x="534" y="209" width="24" height="23" rx="4"/>
  <path d="M528 252 V277" fill="none" stroke="#8299ae" stroke-width="2.5" marker-end="url(#turn)"/>
  <circle cx="552" cy="266" r="10" fill="#fff" stroke="#8299ae" stroke-width="2"/>
  <path d="M552 260 V266 L556 269" fill="none" stroke="#8299ae" stroke-width="2" stroke-linecap="round"/>

  <path class="outline" d="M407 283 H650 Q662 283 662 295 V329 Q662 341 650 341 H423 L406 350 V341 Q394 341 394 329 V295 Q394 283 407 283 Z"/>
  <rect class="prefix" x="414" y="301" width="24" height="23" rx="4"/>
  <rect class="prefix" x="444" y="301" width="24" height="23" rx="4"/>
  <rect class="prefix" x="474" y="301" width="24" height="23" rx="4"/>
  <rect class="prefix" x="504" y="301" width="24" height="23" rx="4"/>
  <rect class="prefix" x="534" y="301" width="24" height="23" rx="4"/>
  <rect class="new" x="564" y="301" width="24" height="23" rx="4"/>

  <path class="line" d="M691 216 H796" marker-end="url(#arrow)"/>
  <text class="micro" x="744" y="239" text-anchor="middle">Request</text>
  <path d="M796 171 H691" fill="none" stroke="#8299ae" stroke-width="2.5" marker-end="url(#turn)"/>
  <text class="micro" x="744" y="158" text-anchor="middle">Response</text>

  <!-- Serving and benchmark measurements. -->
  <rect class="outline" x="838" y="112" width="136" height="171" rx="13"/>
  <path class="line" d="M838 169 H974 M838 226 H974"/>
  <circle cx="858" cy="140" r="5" fill="#078568"/>
  <circle cx="858" cy="198" r="5" fill="#078568"/>
  <circle cx="858" cy="255" r="5" fill="#078568"/>
  <path class="line" d="M881 132 H953 M881 148 H933 M881 190 H953 M881 206 H933 M881 247 H953 M881 263 H933" stroke-width="2"/>
  <path d="M843 310 V354 H973" fill="none" stroke="#8299ae" stroke-width="2" stroke-linecap="round"/>
  <rect x="856" y="336" width="14" height="18" rx="3" fill="#e0f4ec" stroke="#078568" stroke-width="2"/>
  <rect x="880" y="325" width="14" height="29" rx="3" fill="#e0f4ec" stroke="#078568" stroke-width="2"/>
  <rect x="904" y="313" width="14" height="41" rx="3" fill="#e0f4ec" stroke="#078568" stroke-width="2"/>
  <path d="M935 337 L945 326 L954 331 L972 310" fill="none" stroke="#4486d6" stroke-width="2.5" stroke-linecap="round" stroke-linejoin="round"/>
  </g>

  <!-- Compact labels make the trace features and replay controls explicit. -->
  <text class="small" x="157" y="416" text-anchor="middle">Recorded workload</text>
  <rect class="prefix" x="391" y="399" width="17" height="18" rx="4"/>
  <text class="detail" x="419" y="413">Shared prefix</text>
  <rect class="new" x="550" y="399" width="17" height="18" rx="4"/>
  <text class="detail" x="578" y="413">New input</text>
  <text class="small" x="900" y="416" text-anchor="middle">Measured outcomes</text>

  <rect x="30" y="439" width="283" height="148" rx="15" fill="#f8fbff" stroke="#dbe5ee" stroke-width="1.5"/>
  <g transform="translate(48 458)" class="icon">
    <path d="M0 0 H17 M0 7 H22 M0 14 H27"/>
  </g>
  <text class="feature" x="92" y="475" style="font-size:17px">Growing shared prefixes</text>
  <g transform="translate(49 503)" class="icon">
    <circle cx="12" cy="0" r="4"/><path d="M12 4 V10 M0 10 H24 M0 10 V16 M24 10 V16"/>
    <rect x="-4" y="17" width="8" height="7" rx="2"/><rect x="20" y="17" width="8" height="7" rx="2"/>
  </g>
  <text class="feature" x="92" y="520">Subagent trees</text>
  <g transform="translate(61 560)" class="icon">
    <circle r="12"/><path d="M0 -7 V0 L6 3"/>
  </g>
  <text class="feature" x="92" y="565">Recorded pauses</text>

  <rect x="373" y="439" width="340" height="148" rx="15" fill="#f8fbff" stroke="#dbe5ee" stroke-width="1.5"/>
  <!-- Replay controls are text annotations, not extra symbols in the flow. -->
  <text class="feature" x="393" y="475">Preserve spawn / join</text>
  <text class="detail" x="393" y="520" style="fill:#203952">Response → delay → next turn</text>
  <text class="feature" x="393" y="565">C = live sessions</text>

  <rect x="788" y="439" width="227" height="148" rx="15" fill="#f5fbf8" stroke="#d9e9e2" stroke-width="1.5"/>
  <g transform="translate(807 458)" fill="none" stroke="#078568" stroke-width="2" stroke-linejoin="round">
    <rect width="10" height="16" rx="2"/><rect x="15" width="10" height="16" rx="2"/>
  </g>
  <text class="feature" x="847" y="475">Cache reuse</text>
  <g transform="translate(820 513)" fill="none" stroke="#078568" stroke-width="2" stroke-linecap="round">
    <circle r="11"/><path d="M0 -6 V0 L5 3 M-4 -16 H4 M0 -16 V-12"/>
  </g>
  <text class="feature" x="847" y="520">TTFT + E2E</text>
  <g transform="translate(808 551)" fill="none" stroke="#078568" stroke-width="2" stroke-linejoin="round">
    <rect y="10" width="5" height="9" rx="1"/><rect x="9" y="5" width="5" height="14" rx="1"/><rect x="18" width="5" height="19" rx="1"/>
  </g>
  <text class="feature" x="847" y="565">Throughput</text>
</svg>
